<svg width="800" height="600" xmlns="http://www.w3.org/2000/svg">
  <defs>
    <linearGradient id="grad1" x1="0%" y1="0%" x2="100%" y2="100%">
      <stop offset="0%" style="stop-color:#9b59b6;stop-opacity:1" />
      <stop offset="100%" style="stop-color:#e74c3c;stop-opacity:1" />
    </linearGradient>
  </defs>
  <rect width="100%" height="100%" fill="url(#grad1)" rx="10" ry="10" />
  
  <!-- Mobile phone outline -->
  <rect x="300" y="100" width="200" height="400" rx="20" ry="20" fill="#333" />
  <rect x="310" y="120" width="180" height="350" rx="5" ry="5" fill="#fff" />
  <circle cx="400" cy="490" r="15" fill="#555" />
  
  <!-- App UI elements -->
  <rect x="310" y="120" width="180" height="60" fill="#9b59b6" />
  <text x="400" y="160" font-family="Arial" font-size="16" font-weight="bold" text-anchor="middle" fill="#fff">FITNESS APP</text>
  
  <!-- Navigation bar -->
  <rect x="310" y="430" width="180" height="40" fill="#f5f5f5" />
  <circle cx="340" cy="450" r="10" fill="#9b59b6" />
  <circle cx="400" cy="450" r="10" fill="#bbb" />
  <circle cx="460" cy="450" r="10" fill="#bbb" />
  
  <!-- Content sections -->
  <rect x="330" y="200" width="140" height="60" rx="5" ry="5" fill="#f5f5f5" />
  <rect x="340" y="210" width="40" height="40" rx="5" ry="5" fill="#9b59b6" />
  <rect x="390" y="215" width="70" height="10" rx="2" ry="2" fill="#bbb" />
  <rect x="390" y="235" width="70" height="10" rx="2" ry="2" fill="#bbb" />
  
  <rect x="330" y="280" width="140" height="60" rx="5" ry="5" fill="#f5f5f5" />
  <rect x="340" y="290" width="40" height="40" rx="5" ry="5" fill="#e74c3c" />
  <rect x="390" y="295" width="70" height="10" rx="2" ry="2" fill="#bbb" />
  <rect x="390" y="315" width="70" height="10" rx="2" ry="2" fill="#bbb" />
  
  <rect x="330" y="360" width="140" height="60" rx="5" ry="5" fill="#f5f5f5" />
  <rect x="340" y="370" width="40" height="40" rx="5" ry="5" fill="#3498db" />
  <rect x="390" y="375" width="70" height="10" rx="2" ry="2" fill="#bbb" />
  <rect x="390" y="395" width="70" height="10" rx="2" ry="2" fill="#bbb" />
  
  <text x="400" y="550" font-family="Arial" font-size="24" text-anchor="middle" fill="#fff">Mobile App UI</text>
</svg>