<svg width="800" height="600" xmlns="http://www.w3.org/2000/svg">
  <defs>
    <linearGradient id="grad1" x1="0%" y1="0%" x2="100%" y2="100%">
      <stop offset="0%" style="stop-color:#1abc9c;stop-opacity:1" />
      <stop offset="100%" style="stop-color:#16a085;stop-opacity:1" />
    </linearGradient>
  </defs>
  <rect width="100%" height="100%" fill="url(#grad1)" rx="10" ry="10" />
  <rect x="100" y="100" width="600" height="80" fill="rgba(255,255,255,0.2)" rx="5" ry="5" />
  <rect x="100" y="200" width="180" height="300" fill="rgba(255,255,255,0.1)" rx="5" ry="5" />
  <rect x="310" y="200" width="390" height="300" fill="rgba(255,255,255,0.1)" rx="5" ry="5" />
  <rect x="130" y="230" width="120" height="20" fill="rgba(255,255,255,0.2)" rx="5" ry="5" />
  <rect x="130" y="270" width="120" height="20" fill="rgba(255,255,255,0.2)" rx="5" ry="5" />
  <rect x="130" y="310" width="120" height="20" fill="rgba(255,255,255,0.2)" rx="5" ry="5" />
  <rect x="130" y="350" width="120" height="20" fill="rgba(255,255,255,0.2)" rx="5" ry="5" />
  <rect x="340" y="230" width="330" height="30" fill="rgba(255,255,255,0.2)" rx="5" ry="5" />
  <rect x="340" y="280" width="330" height="180" fill="rgba(255,255,255,0.2)" rx="5" ry="5" />
  <text x="400" y="520" font-family="Arial" font-size="24" text-anchor="middle" fill="#fff">Blog Website</text>
</svg>