<svg width="800" height="600" xmlns="http://www.w3.org/2000/svg">
  <defs>
    <linearGradient id="grad1" x1="0%" y1="0%" x2="100%" y2="100%">
      <stop offset="0%" style="stop-color:#9b59b6;stop-opacity:1" />
      <stop offset="100%" style="stop-color:#8e44ad;stop-opacity:1" />
    </linearGradient>
  </defs>
  <rect width="100%" height="100%" fill="url(#grad1)" rx="10" ry="10" />
  <rect x="200" y="150" width="400" height="300" fill="rgba(255,255,255,0.1)" rx="10" ry="10" />
  <circle cx="250" cy="200" r="20" fill="rgba(255,255,255,0.2)" />
  <rect x="280" y="190" width="280" height="20" fill="rgba(255,255,255,0.2)" rx="5" ry="5" />
  <circle cx="250" cy="250" r="20" fill="rgba(255,255,255,0.2)" />
  <rect x="280" y="240" width="280" height="20" fill="rgba(255,255,255,0.2)" rx="5" ry="5" />
  <circle cx="250" cy="300" r="20" fill="rgba(255,255,255,0.2)" />
  <rect x="280" y="290" width="280" height="20" fill="rgba(255,255,255,0.2)" rx="5" ry="5" />
  <circle cx="250" cy="350" r="20" fill="rgba(255,255,255,0.2)" />
  <rect x="280" y="340" width="280" height="20" fill="rgba(255,255,255,0.2)" rx="5" ry="5" />
  <circle cx="250" cy="400" r="20" fill="rgba(255,255,255,0.2)" />
  <rect x="280" y="390" width="280" height="20" fill="rgba(255,255,255,0.2)" rx="5" ry="5" />
  <text x="400" y="500" font-family="Arial" font-size="24" text-anchor="middle" fill="#fff">Portfolio Design</text>
</svg>