<svg width="800" height="600" xmlns="http://www.w3.org/2000/svg">
  <defs>
    <linearGradient id="grad1" x1="0%" y1="0%" x2="100%" y2="100%">
      <stop offset="0%" style="stop-color:#3498db;stop-opacity:1" />
      <stop offset="100%" style="stop-color:#2980b9;stop-opacity:1" />
    </linearGradient>
    <linearGradient id="grad2" x1="0%" y1="0%" x2="100%" y2="0%">
      <stop offset="0%" style="stop-color:rgba(255,255,255,0.2);stop-opacity:1" />
      <stop offset="100%" style="stop-color:rgba(255,255,255,0);stop-opacity:1" />
    </linearGradient>
  </defs>
  <rect width="100%" height="100%" fill="url(#grad1)" rx="10" ry="10" />
  
  <!-- Cloud shapes -->
  <ellipse cx="200" cy="150" rx="60" ry="40" fill="rgba(255,255,255,0.3)" />
  <ellipse cx="250" cy="130" rx="50" ry="30" fill="rgba(255,255,255,0.3)" />
  <ellipse cx="300" cy="150" rx="60" ry="40" fill="rgba(255,255,255,0.3)" />
  <rect x="200" y="150" width="100" height="40" fill="rgba(255,255,255,0.3)" />
  
  <ellipse cx="600" cy="200" rx="40" ry="25" fill="rgba(255,255,255,0.2)" />
  <ellipse cx="630" cy="190" rx="30" ry="20" fill="rgba(255,255,255,0.2)" />
  <ellipse cx="660" cy="200" rx="40" ry="25" fill="rgba(255,255,255,0.2)" />
  <rect x="600" y="200" width="60" height="25" fill="rgba(255,255,255,0.2)" />
  
  <!-- Sun -->
  <circle cx="500" cy="120" r="50" fill="#f1c40f" />
  <circle cx="500" cy="120" r="40" fill="#f39c12" />
  
  <!-- Weather data display -->
  <rect x="200" y="250" width="400" height="250" fill="rgba(255,255,255,0.1)" rx="10" ry="10" />
  
  <!-- Temperature display -->
  <text x="400" y="320" font-family="Arial" font-size="60" font-weight="bold" text-anchor="middle" fill="#fff">23°C</text>
  
  <!-- Weather info -->
  <rect x="250" y="350" width="300" height="30" fill="rgba(255,255,255,0.2)" rx="5" ry="5" />
  <rect x="250" y="400" width="300" height="30" fill="rgba(255,255,255,0.2)" rx="5" ry="5" />
  <rect x="250" y="450" width="300" height="30" fill="rgba(255,255,255,0.2)" rx="5" ry="5" />
  
  <text x="400" y="550" font-family="Arial" font-size="24" text-anchor="middle" fill="#fff">Weather App</text>
</svg>